<?xml version="1.0" encoding="UTF-8" standalone="no"?>
<svg
   xmlns:dc="http://purl.org/dc/elements/1.1/"
   xmlns:cc="http://creativecommons.org/ns#"
   xmlns:rdf="http://www.w3.org/1999/02/22-rdf-syntax-ns#"
   xmlns:svg="http://www.w3.org/2000/svg"
   xmlns="http://www.w3.org/2000/svg"
   viewBox="0 0 797.77502 390.29999"
   height="390.29999"
   width="797.77502"
   xml:space="preserve"
   version="1.1"
   id="svg3355"><metadata
     id="metadata3361"><rdf:RDF><cc:Work
         rdf:about=""><dc:format>image/svg+xml</dc:format><dc:type
           rdf:resource="http://purl.org/dc/dcmitype/StillImage" /><dc:title></dc:title></cc:Work></rdf:RDF></metadata><defs
     id="defs3359" /><g
     transform="matrix(1.25,0,0,-1.25,0,390.3)"
     id="g3363"><g
       transform="scale(0.1,0.1)"
       id="g3365"><path
         id="path3367"
         style="fill:#231f20;fill-opacity:1;fill-rule:nonzero;stroke:none"
         d="m 3457.72,2751.5 110.65,0 -42.25,115.45 c -1.91,5.13 -4.04,11.15 -6.36,18.12 -2.33,6.96 -4.59,14.53 -6.84,22.67 -2.25,-8.14 -4.43,-15.75 -6.6,-22.79 -2.15,-7.03 -4.28,-13.19 -6.37,-18.49 l -42.23,-114.96 z m 224.63,-131.03 -49.92,0 c -5.58,0 -10.19,1.39 -13.79,4.21 -3.59,2.8 -6.21,6.27 -7.79,10.43 l -25.94,70.81 -143.75,0 -25.92,-70.81 c -1.28,-3.68 -3.8,-7.05 -7.55,-10.07 -3.77,-3.05 -8.36,-4.57 -13.81,-4.57 l -50.16,0 136.33,347.04 65.99,0 136.31,-347.04" /><path
         id="path3369"
         style="fill:#231f20;fill-opacity:1;fill-rule:nonzero;stroke:none"
         d="m 3904.11,2904.38 c -1.76,-3.51 -3.79,-5.99 -6.11,-7.43 -2.33,-1.43 -5.08,-2.17 -8.28,-2.17 -3.21,0 -6.8,1.24 -10.8,3.74 -4.01,2.46 -8.71,5.24 -14.16,8.27 -5.43,3.03 -11.8,5.81 -19.09,8.28 -7.26,2.48 -15.88,3.73 -25.8,3.73 -8.94,0 -16.75,-1.1 -23.4,-3.25 -6.64,-2.16 -12.22,-5.15 -16.79,-9 -4.55,-3.85 -7.95,-8.45 -10.2,-13.81 -2.24,-5.36 -3.36,-11.24 -3.36,-17.63 0,-8.16 2.29,-14.97 6.84,-20.4 4.57,-5.44 10.6,-10.07 18.12,-13.92 7.52,-3.84 16.08,-7.29 25.69,-10.31 9.59,-3.05 19.39,-6.29 29.39,-9.73 10,-3.45 19.81,-7.44 29.4,-11.99 9.61,-4.57 18.16,-10.33 25.68,-17.3 7.52,-6.95 13.55,-15.48 18.13,-25.54 4.55,-10.09 6.83,-22.34 6.83,-36.73 0,-15.69 -2.67,-30.35 -8.05,-44.05 -5.35,-13.68 -13.18,-25.59 -23.51,-35.76 -10.31,-10.15 -22.91,-18.14 -37.79,-23.99 -14.89,-5.84 -31.94,-8.76 -51.14,-8.76 -11.03,0 -21.91,1.07 -32.63,3.24 -10.73,2.16 -21,5.24 -30.84,9.24 -9.85,3.99 -19.05,8.81 -27.6,14.39 -8.56,5.61 -16.19,11.85 -22.91,18.72 l 18.71,30.97 c 1.76,2.25 3.89,4.11 6.37,5.65 2.48,1.51 5.23,2.27 8.28,2.27 3.98,0 8.32,-1.65 12.95,-4.92 4.65,-3.27 10.11,-6.92 16.44,-10.92 6.31,-3.99 13.75,-7.64 22.33,-10.92 8.55,-3.29 18.82,-4.92 30.84,-4.92 18.39,0 32.63,4.37 42.71,13.08 10.08,8.73 15.12,21.25 15.12,37.56 0,9.12 -2.29,16.56 -6.84,22.32 -4.57,5.75 -10.6,10.61 -18.12,14.51 -7.52,3.93 -16.08,7.25 -25.69,9.96 -9.59,2.74 -19.35,5.69 -29.27,8.89 -9.93,3.19 -19.67,7.03 -29.28,11.52 -9.59,4.49 -18.16,10.33 -25.68,17.51 -7.52,7.21 -13.56,16.2 -18.11,27.01 -4.57,10.81 -6.86,24.13 -6.86,39.97 0,12.62 2.52,24.95 7.56,36.95 5.04,12 12.41,22.65 22.09,31.92 9.67,9.28 21.57,16.71 35.65,22.33 14.06,5.58 30.15,8.4 48.24,8.4 20.47,0 39.36,-3.22 56.64,-9.6 17.27,-6.41 31.99,-15.37 44.16,-26.89 l -15.86,-30.49" /><path
         id="path3371"
         style="fill:#231f20;fill-opacity:1;fill-rule:nonzero;stroke:none"
         d="m 4242.28,2793.98 c 0,19.06 -2.52,36.13 -7.56,51.24 -5.04,15.13 -12.29,27.97 -21.72,38.54 -9.44,10.54 -20.92,18.62 -34.44,24.24 -13.53,5.58 -28.77,8.39 -45.72,8.39 -16.95,0 -32.24,-2.81 -45.84,-8.39 -13.59,-5.62 -25.15,-13.7 -34.69,-24.24 -9.51,-10.57 -16.83,-23.41 -21.95,-38.54 -5.12,-15.11 -7.67,-32.18 -7.67,-51.24 0,-19.03 2.55,-36.11 7.67,-51.24 5.12,-15.11 12.44,-27.92 21.95,-38.39 9.54,-10.47 21.1,-18.52 34.69,-24.13 13.6,-5.58 28.89,-8.4 45.84,-8.4 16.95,0 32.19,2.82 45.72,8.4 13.52,5.61 25,13.66 34.44,24.13 9.43,10.47 16.68,23.28 21.72,38.39 5.04,15.13 7.56,32.21 7.56,51.24 z m 66.25,0 c 0,-25.44 -4.24,-48.99 -12.74,-70.67 -8.48,-21.68 -20.39,-40.44 -35.74,-56.28 -15.37,-15.84 -33.85,-28.19 -55.45,-37.08 -21.6,-8.89 -45.53,-13.32 -71.76,-13.32 -26.25,0 -50.19,4.43 -71.87,13.32 -21.68,8.89 -40.26,21.24 -55.69,37.08 -15.45,15.84 -27.4,34.6 -35.88,56.28 -8.47,21.68 -12.71,45.23 -12.71,70.67 0,25.45 4.24,49.02 12.71,70.7 8.48,21.68 20.43,40.43 35.88,56.27 15.43,15.84 34.01,28.2 55.69,37.09 21.68,8.86 45.62,13.32 71.87,13.32 26.23,0 50.16,-4.5 71.76,-13.44 21.6,-8.98 40.08,-21.33 55.45,-37.09 15.35,-15.76 27.26,-34.47 35.74,-56.15 8.5,-21.68 12.74,-45.25 12.74,-70.7" /><path
         id="path3373"
         style="fill:#231f20;fill-opacity:1;fill-rule:nonzero;stroke:none"
         d="m 4597.96,2702.3 c 3.51,0 6.56,-1.35 9.12,-4.07 l 25.45,-27.6 c -14.08,-17.45 -31.41,-30.81 -51.97,-40.08 -20.57,-9.28 -45.24,-13.92 -74.05,-13.92 -25.76,0 -48.9,4.39 -69.47,13.19 -20.57,8.8 -38.12,21.05 -52.67,36.73 -14.58,15.67 -25.73,34.4 -33.48,56.15 -7.77,21.76 -11.64,45.53 -11.64,71.28 0,26.09 4.31,49.96 12.95,71.65 8.65,21.67 20.8,40.35 36.48,56.04 15.69,15.67 34.44,27.88 56.27,36.6 21.86,8.72 45.98,13.09 72.36,13.09 25.77,0 48.29,-4.13 67.56,-12.38 19.28,-8.23 35.8,-19.16 49.57,-32.74 l -21.6,-30 c -1.29,-1.94 -2.93,-3.61 -4.92,-5.05 -2.01,-1.45 -4.77,-2.16 -8.28,-2.16 -3.67,0 -7.44,1.45 -11.27,4.32 -3.85,2.89 -8.73,5.99 -14.65,9.35 -5.92,3.36 -13.4,6.49 -22.44,9.38 -9.04,2.87 -20.53,4.31 -34.43,4.31 -16.33,0 -31.33,-2.85 -45,-8.52 -13.7,-5.67 -25.45,-13.8 -35.3,-24.37 -9.82,-10.54 -17.52,-23.39 -23.02,-38.51 -5.53,-15.12 -8.29,-32.12 -8.29,-51.01 0,-19.52 2.76,-36.86 8.29,-52.08 5.5,-15.19 12.98,-28 22.44,-38.4 9.43,-10.4 20.54,-18.36 33.36,-23.86 12.79,-5.53 26.54,-8.28 41.27,-8.28 8.8,0 16.75,0.46 23.88,1.43 7.11,0.97 13.67,2.47 19.69,4.56 6,2.07 11.66,4.77 17.03,8.05 5.35,3.26 10.68,7.3 15.96,12.11 1.6,1.43 3.28,2.6 5.04,3.47 1.76,0.88 3.69,1.32 5.76,1.32" /><path
         id="path3375"
         style="fill:#231f20;fill-opacity:1;fill-rule:nonzero;stroke:none"
         d="m 4689.15,2620.47 64.8125,0 0,347.039 -64.8125,0 0,-347.039 z" /><path
         id="path3377"
         style="fill:#231f20;fill-opacity:1;fill-rule:nonzero;stroke:none"
         d="m 4912.35,2751.5 110.65,0 -42.25,115.45 c -1.91,5.13 -4.04,11.15 -6.37,18.12 -2.32,6.96 -4.59,14.53 -6.83,22.67 -2.25,-8.14 -4.43,-15.75 -6.6,-22.79 -2.15,-7.03 -4.28,-13.19 -6.37,-18.49 l -42.23,-114.96 z m 224.63,-131.03 -49.92,0 c -5.59,0 -10.19,1.39 -13.79,4.21 -3.59,2.8 -6.21,6.27 -7.79,10.43 l -25.94,70.81 -143.75,0 -25.92,-70.81 c -1.29,-3.68 -3.81,-7.05 -7.56,-10.07 -3.77,-3.05 -8.35,-4.57 -13.8,-4.57 l -50.16,0 136.33,347.04 65.99,0 136.31,-347.04" /><path
         id="path3379"
         style="fill:#231f20;fill-opacity:1;fill-rule:nonzero;stroke:none"
         d="m 5399.07,2702.3 c 3.52,0 6.56,-1.35 9.12,-4.07 l 25.45,-27.6 c -14.08,-17.45 -31.4,-30.81 -51.97,-40.08 -20.57,-9.28 -45.23,-13.92 -74.04,-13.92 -25.76,0 -48.91,4.39 -69.48,13.19 -20.56,8.8 -38.12,21.05 -52.67,36.73 -14.57,15.67 -25.72,34.4 -33.48,56.15 -7.77,21.76 -11.64,45.53 -11.64,71.28 0,26.09 4.32,49.96 12.95,71.65 8.65,21.67 20.8,40.35 36.48,56.04 15.69,15.67 34.44,27.88 56.27,36.6 21.86,8.72 45.98,13.09 72.37,13.09 25.76,0 48.28,-4.13 67.56,-12.38 19.27,-8.23 35.8,-19.16 49.57,-32.74 l -21.6,-30 c -1.29,-1.94 -2.93,-3.61 -4.93,-5.05 -2.01,-1.45 -4.76,-2.16 -8.28,-2.16 -3.67,0 -7.44,1.45 -11.27,4.32 -3.85,2.89 -8.73,5.99 -14.65,9.35 -5.91,3.36 -13.39,6.49 -22.44,9.38 -9.04,2.87 -20.52,4.31 -34.43,4.31 -16.33,0 -31.33,-2.85 -45,-8.52 -13.69,-5.67 -25.45,-13.8 -35.29,-24.37 -9.83,-10.54 -17.52,-23.39 -23.03,-38.51 -5.53,-15.12 -8.28,-32.12 -8.28,-51.01 0,-19.52 2.75,-36.86 8.28,-52.08 5.51,-15.19 12.99,-28 22.44,-38.4 9.43,-10.4 20.55,-18.36 33.36,-23.86 12.79,-5.53 26.54,-8.28 41.27,-8.28 8.81,0 16.76,0.46 23.89,1.43 7.11,0.97 13.67,2.47 19.68,4.56 6,2.07 11.66,4.77 17.03,8.05 5.36,3.26 10.69,7.3 15.96,12.11 1.6,1.43 3.28,2.6 5.04,3.47 1.76,0.88 3.69,1.32 5.76,1.32" /><path
         id="path3381"
         style="fill:#231f20;fill-opacity:1;fill-rule:nonzero;stroke:none"
         d="m 5490.26,2620.47 64.8086,0 0,347.039 -64.8086,0 0,-347.039 z" /><path
         id="path3383"
         style="fill:#231f20;fill-opacity:1;fill-rule:nonzero;stroke:none"
         d="m 5882.92,3050.31 -71.05,-51.85 c -1.76,-1.26 -3.4,-2.31 -4.93,-3.11 -1.5,-0.8 -3.02,-1.45 -4.55,-1.92 -1.52,-0.47 -3.12,-0.8 -4.8,-0.96 -1.68,-0.17 -3.63,-0.25 -5.88,-0.25 l -46.56,0 47.05,48.49 c 1.91,1.92 3.71,3.52 5.39,4.81 1.68,1.27 3.4,2.27 5.15,2.98 1.76,0.73 3.77,1.21 6.02,1.45 2.23,0.23 4.94,0.36 8.14,0.36 l 66.02,0 z m 16.8,-256.33 c 0,19.06 -2.52,36.13 -7.56,51.24 -5.04,15.13 -12.29,27.97 -21.72,38.54 -9.45,10.54 -20.94,18.62 -34.45,24.24 -13.52,5.58 -28.75,8.39 -45.73,8.39 -16.95,0 -32.22,-2.81 -45.84,-8.39 -13.59,-5.62 -25.15,-13.7 -34.66,-24.24 -9.54,-10.57 -16.84,-23.41 -21.98,-38.54 -5.11,-15.11 -7.67,-32.18 -7.67,-51.24 0,-19.03 2.56,-36.11 7.67,-51.24 5.14,-15.11 12.44,-27.92 21.98,-38.39 9.51,-10.47 21.07,-18.52 34.66,-24.13 13.62,-5.58 28.89,-8.4 45.84,-8.4 16.98,0 32.21,2.82 45.73,8.4 13.51,5.61 25,13.66 34.45,24.13 9.43,10.47 16.68,23.28 21.72,38.39 5.04,15.13 7.56,32.21 7.56,51.24 z m 66.23,0 c 0,-25.44 -4.24,-48.99 -12.72,-70.67 -8.47,-21.68 -20.39,-40.44 -35.76,-56.28 -15.35,-15.84 -33.85,-28.19 -55.43,-37.08 -21.6,-8.89 -45.53,-13.32 -71.78,-13.32 -26.23,0 -50.19,4.43 -71.87,13.32 -21.68,8.89 -40.24,21.24 -55.68,37.08 -15.43,15.84 -27.41,34.6 -35.88,56.28 -8.48,21.68 -12.72,45.23 -12.72,70.67 0,25.45 4.24,49.02 12.72,70.7 8.47,21.68 20.45,40.43 35.88,56.27 15.44,15.84 34,28.2 55.68,37.09 21.68,8.86 45.64,13.32 71.87,13.32 26.25,0 50.18,-4.5 71.78,-13.44 21.58,-8.98 40.08,-21.33 55.43,-37.09 15.37,-15.76 27.29,-34.47 35.76,-56.15 8.48,-21.68 12.72,-45.25 12.72,-70.7" /><path
         id="path3385"
         style="fill:#231f20;fill-opacity:1;fill-rule:nonzero;stroke:none"
         d="m 6057.69,2967.16 c 1.91,-0.26 3.63,-0.73 5.13,-1.45 1.53,-0.72 2.99,-1.77 4.44,-3.11 1.42,-1.36 3.02,-3.18 4.78,-5.4 l 182.64,-232.09 c -0.65,5.59 -1.1,11.07 -1.33,16.44 -0.23,5.35 -0.35,10.35 -0.35,15 l 0,210.96 56.64,0 0,-347.04 -33.22,0 c -5.1,0 -9.32,0.8 -12.66,2.4 -3.36,1.59 -6.62,4.47 -9.8,8.63 l -181.92,231.13 c 0.47,-5.12 0.84,-10.2 1.08,-15.24 0.23,-5.04 0.35,-9.65 0.35,-13.81 l 0,-213.11 -56.64,0 0,347.04 33.69,0 c 2.87,0 5.25,-0.12 7.17,-0.35" /><path
         id="path3387"
         style="fill:#231f20;fill-opacity:1;fill-rule:nonzero;stroke:none"
         d="m 3596.2,2437.52 0,-51.37 -153.85,0 0,-96.24 121.21,0 0,-49.69 -121.21,0 0,-98.15 153.85,0 0,-51.6 -218.89,0 0,347.05 218.89,0" /><path
         id="path3389"
         style="fill:#231f20;fill-opacity:1;fill-rule:nonzero;stroke:none"
         d="m 3838.12,2374.38 c -1.76,-3.5 -3.81,-5.99 -6.12,-7.43 -2.32,-1.43 -5.1,-2.17 -8.28,-2.17 -3.2,0 -6.82,1.24 -10.8,3.74 -4,2.47 -8.73,5.23 -14.16,8.28 -5.45,3.02 -11.8,5.8 -19.08,8.27 -7.29,2.48 -15.88,3.72 -25.8,3.72 -8.97,0 -16.76,-1.09 -23.4,-3.24 -6.64,-2.16 -12.25,-5.16 -16.8,-9 -4.57,-3.85 -7.97,-8.45 -10.21,-13.81 -2.23,-5.36 -3.36,-11.24 -3.36,-17.63 0,-8.16 2.28,-14.97 6.85,-20.41 4.55,-5.43 10.59,-10.07 18.11,-13.91 7.52,-3.84 16.09,-7.29 25.68,-10.32 9.61,-3.04 19.4,-6.27 29.4,-9.72 10,-3.45 19.8,-7.43 29.41,-12 9.59,-4.55 18.15,-10.32 25.68,-17.29 7.52,-6.95 13.56,-15.48 18.11,-25.54 4.57,-10.08 6.84,-22.34 6.84,-36.72 0,-15.7 -2.68,-30.36 -8.03,-44.05 -5.37,-13.69 -13.2,-25.6 -23.52,-35.77 -10.33,-10.14 -22.93,-18.15 -37.81,-23.99 -14.88,-5.84 -31.91,-8.76 -51.11,-8.76 -11.04,0 -21.94,1.07 -32.64,3.24 -10.72,2.16 -21,5.25 -30.84,9.24 -9.84,3.99 -19.04,8.8 -27.6,14.39 -8.57,5.61 -16.21,11.85 -22.93,18.72 l 18.73,30.97 c 1.76,2.24 3.87,4.11 6.35,5.65 2.48,1.51 5.24,2.27 8.28,2.27 4.01,0 8.32,-1.65 12.97,-4.92 4.63,-3.28 10.12,-6.92 16.43,-10.92 6.32,-4 13.77,-7.63 22.32,-10.92 8.56,-3.29 18.85,-4.92 30.84,-4.92 18.4,0 32.64,4.36 42.72,13.09 10.09,8.71 15.13,21.23 15.13,37.55 0,9.13 -2.28,16.56 -6.85,22.32 -4.55,5.75 -10.59,10.61 -18.11,14.51 -7.52,3.94 -16.09,7.26 -25.68,9.96 -9.61,2.73 -19.36,5.69 -29.28,8.89 -9.92,3.19 -19.69,7.03 -29.28,11.52 -9.61,4.49 -18.16,10.33 -25.68,17.51 -7.52,7.21 -13.56,16.21 -18.13,27.02 -4.55,10.8 -6.83,24.12 -6.83,39.96 0,12.62 2.52,24.96 7.56,36.95 5.04,12 12.4,22.64 22.07,31.91 9.69,9.28 21.56,16.72 35.64,22.33 14.08,5.59 30.16,8.4 48.24,8.4 20.49,0 39.36,-3.21 56.64,-9.59 17.29,-6.41 32,-15.37 44.17,-26.89 l -15.84,-30.49" /><path
         id="path3391"
         style="fill:#231f20;fill-opacity:1;fill-rule:nonzero;stroke:none"
         d="m 3976.36,2263.02 48.47,0 c 11.84,0 22.17,1.49 30.96,4.46 8.81,2.96 16.08,7.2 21.84,12.74 5.76,5.53 10.08,12.26 12.97,20.21 2.87,7.93 4.31,16.78 4.31,26.56 0,9.3 -1.44,17.71 -4.31,25.25 -2.89,7.53 -7.21,13.95 -12.97,19.23 -5.76,5.3 -13.03,9.35 -21.84,12.15 -8.79,2.81 -19.12,4.21 -30.96,4.21 l -48.47,0 0,-124.81 z m 0,-50.38 0,-122.17 -64.57,0 0,347.05 113.04,0 c 23.21,0 43.29,-2.74 60.24,-8.18 16.97,-5.44 30.96,-13.02 42.01,-22.79 11.04,-9.75 19.2,-21.44 24.47,-35.05 5.28,-13.59 7.93,-28.48 7.93,-44.64 0,-16.79 -2.81,-32.18 -8.4,-46.2 -5.6,-13.98 -14,-26.03 -25.21,-36.11 -11.19,-10.08 -25.2,-17.92 -41.99,-23.53 -16.8,-5.59 -36.49,-8.38 -59.05,-8.38 l -48.47,0" /><path
         id="path3393"
         style="fill:#231f20;fill-opacity:1;fill-rule:nonzero;stroke:none"
         d="m 4252.84,2221.5 110.65,0 -42.25,115.45 c -1.91,5.12 -4.04,11.15 -6.37,18.12 -2.32,6.96 -4.59,14.52 -6.83,22.67 -2.25,-8.15 -4.44,-15.75 -6.6,-22.79 -2.15,-7.04 -4.28,-13.19 -6.37,-18.49 l -42.23,-114.96 z m 224.63,-131.03 -49.92,0 c -5.59,0 -10.2,1.39 -13.79,4.21 -3.59,2.8 -6.21,6.27 -7.79,10.44 l -25.94,70.8 -143.75,0 -25.92,-70.8 c -1.29,-3.7 -3.81,-7.06 -7.56,-10.08 -3.77,-3.05 -8.36,-4.57 -13.81,-4.57 l -50.15,0 136.33,347.05 65.99,0 136.31,-347.05" /><path
         id="path3395"
         style="fill:#231f20;fill-opacity:1;fill-rule:nonzero;stroke:none"
         d="m 4693,2498.23 c 4.31,0 7.79,1.23 10.43,3.72 2.63,2.47 4.04,6.27 4.2,11.41 l 32.16,0 c 0,-8.01 -1.05,-15.3 -3.12,-21.86 -2.09,-6.56 -5.04,-12.16 -8.89,-16.8 -3.82,-4.63 -8.55,-8.27 -14.16,-10.91 -5.6,-2.64 -11.99,-3.97 -19.2,-3.97 -5.76,0 -11.3,0.88 -16.68,2.66 -5.35,1.75 -10.46,3.67 -15.35,5.75 -4.88,2.08 -9.45,3.99 -13.69,5.75 -4.24,1.77 -8.03,2.65 -11.39,2.65 -4.31,0 -7.77,-1.32 -10.33,-3.95 -2.56,-2.64 -3.92,-6.53 -4.08,-11.66 l -32.64,0 c 0,7.84 1.04,15.08 3.13,21.72 2.07,6.64 5.12,12.37 9.12,17.17 4,4.79 8.79,8.52 14.39,11.15 5.61,2.65 11.92,3.98 18.97,3.98 5.76,0 11.37,-0.88 16.8,-2.65 5.45,-1.76 10.6,-3.68 15.48,-5.76 4.87,-2.08 9.4,-3.99 13.56,-5.75 4.16,-1.78 7.91,-2.65 11.29,-2.65 z m -138.91,-61.07 c 1.92,-0.26 3.62,-0.73 5.14,-1.45 1.5,-0.71 2.99,-1.77 4.41,-3.11 1.45,-1.37 3.03,-3.18 4.79,-5.42 l 182.63,-232.07 c -0.64,5.59 -1.07,11.08 -1.3,16.44 -0.26,5.35 -0.38,10.35 -0.38,15 l 0,210.97 56.65,0 0,-347.05 -33.23,0 c -5.09,0 -9.31,0.8 -12.65,2.4 -3.34,1.59 -6.61,4.47 -9.81,8.63 l -181.91,231.14 c 0.49,-5.12 0.84,-10.21 1.07,-15.25 0.26,-5.04 0.37,-9.65 0.37,-13.81 l 0,-213.11 -56.64,0 0,347.05 33.69,0 c 2.87,0 5.26,-0.13 7.17,-0.36" /><path
         id="path3397"
         style="fill:#231f20;fill-opacity:1;fill-rule:nonzero;stroke:none"
         d="m 5142.74,2263.98 c 0,19.04 -2.52,36.13 -7.55,51.24 -5.04,15.13 -12.29,27.97 -21.72,38.53 -9.44,10.55 -20.92,18.63 -34.44,24.25 -13.53,5.58 -28.77,8.39 -45.72,8.39 -16.95,0 -32.25,-2.81 -45.84,-8.39 -13.59,-5.62 -25.16,-13.7 -34.69,-24.25 -9.51,-10.56 -16.83,-23.4 -21.95,-38.53 -5.12,-15.11 -7.68,-32.2 -7.68,-51.24 0,-19.04 2.56,-36.11 7.68,-51.24 5.12,-15.1 12.44,-27.92 21.95,-38.39 9.53,-10.49 21.1,-18.51 34.69,-24.13 13.59,-5.59 28.89,-8.4 45.84,-8.4 16.95,0 32.19,2.81 45.72,8.4 13.52,5.62 25,13.64 34.44,24.13 9.43,10.47 16.68,23.29 21.72,38.39 5.03,15.13 7.55,32.2 7.55,51.24 z m 66.25,0 c 0,-25.44 -4.23,-48.98 -12.73,-70.66 -8.48,-21.69 -20.39,-40.45 -35.74,-56.29 -15.37,-15.84 -33.85,-28.19 -55.45,-37.08 -21.6,-8.89 -45.53,-13.32 -71.76,-13.32 -26.25,0 -50.19,4.43 -71.87,13.32 -21.68,8.89 -40.26,21.24 -55.69,37.08 -15.45,15.84 -27.4,34.6 -35.88,56.29 -8.47,21.68 -12.71,45.22 -12.71,70.66 0,25.45 4.24,49.02 12.71,70.7 8.48,21.67 20.43,40.43 35.88,56.27 15.43,15.85 34.01,28.21 55.69,37.07 21.68,8.88 45.62,13.33 71.87,13.33 26.23,0 50.16,-4.49 71.76,-13.44 21.6,-8.97 40.08,-21.33 55.45,-37.07 15.35,-15.77 27.26,-34.49 35.74,-56.16 8.5,-21.68 12.73,-45.25 12.73,-70.7" /><path
         id="path3399"
         style="fill:#231f20;fill-opacity:1;fill-rule:nonzero;stroke:none"
         d="m 5324.42,2143.75 138.97,0 0,-53.28 -203.52,0 0,347.05 64.55,0 0,-293.77" /><path
         id="path3401"
         style="fill:#231f20;fill-opacity:1;fill-rule:nonzero;stroke:none"
         d="m 5588.43,2221.5 110.64,0 -42.24,115.45 c -1.92,5.12 -4.05,11.15 -6.35,18.12 -2.33,6.96 -4.61,14.52 -6.84,22.67 -2.24,-8.15 -4.45,-15.75 -6.6,-22.79 -2.17,-7.04 -4.3,-13.19 -6.37,-18.49 l -42.24,-114.96 z m 224.65,-131.03 -49.93,0 c -5.6,0 -10.19,1.39 -13.8,4.21 -3.6,2.8 -6.2,6.27 -7.8,10.44 l -25.92,70.8 -143.76,0 -25.92,-70.8 c -1.27,-3.7 -3.79,-7.06 -7.56,-10.08 -3.75,-3.05 -8.36,-4.57 -13.79,-4.57 l -50.18,0 136.33,347.05 66,0 136.33,-347.05" /><path
         id="path3403"
         style="fill:#231f20;fill-opacity:1;fill-rule:nonzero;stroke:none"
         d="m 3619.48,1733.98 c 0,19.05 -2.56,36.14 -7.67,51.24 -5.14,15.13 -12.41,27.92 -21.86,38.41 -9.43,10.47 -20.92,18.53 -34.43,24.11 -13.52,5.62 -28.77,8.41 -45.73,8.41 l -67.44,0 0,-244.33 67.44,0 c 16.96,0 32.21,2.81 45.73,8.4 13.51,5.62 25,13.65 34.43,24.13 9.45,10.47 16.72,23.28 21.86,38.39 5.11,15.13 7.67,32.2 7.67,51.24 z m 66,0 c 0,-25.44 -4.24,-48.8 -12.72,-70.08 -8.47,-21.27 -20.41,-39.6 -35.76,-54.95 -15.37,-15.37 -33.85,-27.29 -55.45,-35.75 -21.6,-8.5 -45.51,-12.73 -71.76,-12.73 l -132.48,0 0,347.05 132.48,0 c 26.25,0 50.16,-4.3 71.76,-12.84 21.6,-8.58 40.08,-20.48 55.45,-35.78 15.35,-15.28 27.29,-33.55 35.76,-54.83 8.48,-21.29 12.72,-44.64 12.72,-70.09" /><path
         id="path3405"
         style="fill:#231f20;fill-opacity:1;fill-rule:nonzero;stroke:none"
         d="m 3954.99,1907.52 0,-51.37 -153.83,0 0,-96.24 121.19,0 0,-49.69 -121.19,0 0,-98.15 153.83,0 0,-51.6 -218.87,0 0,347.05 218.87,0" /><path
         id="path3407"
         style="fill:#00adef;fill-opacity:1;fill-rule:nonzero;stroke:none"
         d="m 4331.55,1735.43 c 0,17.27 -2.24,32.89 -6.72,46.79 -4.49,13.93 -10.91,25.73 -19.31,35.41 -8.4,9.67 -18.69,17.11 -30.84,22.32 -12.17,5.2 -26.02,7.79 -41.53,7.79 l -54.23,0 0,-224.87 54.23,0 c 15.51,0 29.36,2.6 41.53,7.79 12.15,5.22 22.44,12.66 30.84,22.34 8.4,9.67 14.82,21.47 19.31,35.4 4.48,13.9 6.72,29.6 6.72,47.03 z m 83.05,0 c 0,-25.29 -4.38,-48.6 -13.09,-69.96 -8.73,-21.36 -20.99,-39.85 -36.83,-55.43 -15.84,-15.59 -34.92,-27.77 -57.25,-36.5 -22.32,-8.71 -47.09,-13.07 -74.28,-13.07 l -135.84,0 0,349.67 135.84,0 c 27.19,0 51.96,-4.4 74.28,-13.19 22.33,-8.81 41.41,-20.97 57.25,-36.48 15.84,-15.52 28.1,-33.97 36.83,-55.32 8.71,-21.36 13.09,-44.61 13.09,-69.72" /><path
         id="path3409"
         style="fill:#00adef;fill-opacity:1;fill-rule:nonzero;stroke:none"
         d="m 4534.58,1745.75 32.64,0 c 11.05,0 20.45,1.41 28.2,4.2 7.75,2.79 14.12,6.68 19.08,11.64 4.96,4.95 8.56,10.75 10.8,17.39 2.25,6.64 3.36,13.81 3.36,21.49 0,15.37 -5,27.36 -15,35.99 -10,8.66 -25.49,12.97 -46.44,12.97 l -32.64,0 0,-103.68 z m 0,-55.93 0,-129.35 -81.11,0 0,349.67 113.75,0 c 25.29,0 46.83,-2.58 64.68,-7.79 17.84,-5.19 32.41,-12.45 43.68,-21.73 11.29,-9.27 19.49,-20.23 24.61,-32.88 5.11,-12.62 7.67,-26.39 7.67,-41.28 0,-11.34 -1.52,-22.08 -4.55,-32.16 -3.05,-10.06 -7.56,-19.4 -13.57,-27.95 -6,-8.57 -13.36,-16.21 -22.07,-22.91 -8.73,-6.72 -18.77,-12.25 -30.12,-16.58 5.43,-2.7 10.51,-6.07 15.23,-10.07 4.73,-4.01 8.85,-8.88 12.37,-14.63 l 74.39,-121.69 -73.44,0 c -13.59,0 -23.36,5.11 -29.27,15.35 l -58.09,101.53 c -2.56,4.47 -5.57,7.69 -9,9.6 -3.44,1.92 -8.28,2.87 -14.52,2.87 l -20.64,0" /><path
         id="path3411"
         style="fill:#00adef;fill-opacity:1;fill-rule:nonzero;stroke:none"
         d="m 4903.7,1624.55 c 10.88,0 20.61,1.8 29.16,5.4 8.56,3.59 15.8,8.76 21.72,15.48 5.92,6.73 10.45,14.92 13.57,24.61 3.11,9.66 4.67,20.66 4.67,32.99 l 0,207.11 81.14,0 0,-207.11 c 0,-21.45 -3.5,-41.13 -10.45,-59.05 -6.96,-17.92 -16.92,-33.36 -29.89,-46.32 -12.95,-12.96 -28.71,-23.01 -47.26,-30.23 -18.58,-7.21 -39.46,-10.81 -62.66,-10.81 -23.36,0 -44.32,3.6 -62.87,10.81 -18.57,7.22 -34.32,17.27 -47.29,30.23 -12.94,12.96 -22.87,28.4 -29.76,46.32 -6.88,17.92 -10.31,37.6 -10.31,59.05 l 0,207.11 81.11,0 0,-206.87 c 0,-12.32 1.56,-23.32 4.69,-33 3.12,-9.69 7.63,-17.93 13.55,-24.73 5.92,-6.79 13.17,-12 21.72,-15.59 8.56,-3.6 18.28,-5.4 29.16,-5.4" /><path
         id="path3413"
         style="fill:#00adef;fill-opacity:1;fill-rule:nonzero;stroke:none"
         d="m 5187.86,1738.54 42.25,0 c 21.11,0 36.31,5.04 45.6,15.13 9.28,10.08 13.91,24.16 13.91,42.25 0,7.98 -1.19,15.27 -3.59,21.82 -2.41,6.56 -6.04,12.21 -10.92,16.94 -4.89,4.7 -11.04,8.35 -18.48,10.9 -7.44,2.56 -16.29,3.85 -26.52,3.85 l -42.25,0 0,-110.89 z m 0,-61.19 0,-116.88 -81.11,0 0,349.67 123.36,0 c 24.63,0 45.8,-2.92 63.47,-8.76 17.68,-5.84 32.25,-13.86 43.68,-24.12 11.44,-10.23 19.88,-22.31 25.33,-36.24 5.43,-13.91 8.16,-28.95 8.16,-45.1 0,-17.45 -2.81,-33.44 -8.4,-48.01 -5.6,-14.55 -14.16,-27.03 -25.68,-37.44 -11.52,-10.39 -26.13,-18.53 -43.81,-24.36 -17.67,-5.85 -38.59,-8.76 -62.75,-8.76 l -42.25,0" /><path
         id="path3415"
         style="fill:#00adef;fill-opacity:1;fill-rule:nonzero;stroke:none"
         d="m 5472.98,1694.16 95.51,0 -32.15,95.75 c -2.09,6.07 -4.53,13.23 -7.33,21.47 -2.79,8.25 -5.56,17.16 -8.28,26.76 -2.56,-9.74 -5.19,-18.8 -7.91,-27.12 -2.73,-8.32 -5.29,-15.5 -7.69,-21.59 l -32.15,-95.27 z m 224.63,-133.69 -62.87,0 c -7.05,0 -12.86,1.64 -17.41,4.93 -4.55,3.25 -7.71,7.48 -9.47,12.59 l -20.64,60.95 -132.97,0 -20.63,-60.95 c -1.6,-4.49 -4.72,-8.51 -9.37,-12.13 -4.63,-3.59 -10.31,-5.39 -17.03,-5.39 l -63.36,0 135.35,349.67 83.05,0 135.35,-349.67" /><path
         id="path3417"
         style="fill:#00adef;fill-opacity:1;fill-rule:nonzero;stroke:none"
         d="m 5807.06,1625.27 129.59,0 0,-64.8 -210.72,0 0,349.67 81.13,0 0,-284.87" /><path
         id="path3419"
         style="fill:#231f20;fill-opacity:1;fill-rule:nonzero;stroke:none"
         d="m 82.5469,102.281 2890,0 0,2890.01 -2890,0 0,-2890.01 z" /><path
         id="path3421"
         style="fill:#00adef;fill-opacity:1;fill-rule:nonzero;stroke:none"
         d="m 2041.42,1607.67 -53.07,-401.3 c 0,0 198.4,-34.92 210.55,148.56 13.75,207.5 -157.48,252.74 -157.48,252.74" /><path
         id="path3423"
         style="fill:#ed1c24;fill-opacity:1;fill-rule:nonzero;stroke:none"
         d="m 1833.25,2534.41 c -1.91,3.4 -5.47,5.36 -9.51,5.08 -3.89,-0.29 -7.25,-2.83 -8.59,-6.47 -13.28,-35.73 -57.58,-130.07 -101.31,-124.97 -17.35,2.05 -40.45,17.16 -67.19,34.66 -45.98,30.07 -103.16,67.5 -172.87,67.5 -10.9,0 -21.9,-0.94 -32.7,-2.79 -105.89,-18.15 -171.54,-157.75 -174.27,-163.69 -1.16,-2.5 -1.23,-5.37 -0.22,-7.92 1.04,-2.55 3.07,-4.58 5.63,-5.59 l 108.3,-42.58 c 1.19,-0.46 2.42,-0.71 3.67,-0.71 1.43,0 2.85,0.31 4.18,0.92 2.48,1.14 4.37,3.24 5.27,5.82 0.33,0.94 33.81,95.78 105.08,89.18 24.88,-2.21 54.63,-18.71 86.13,-36.17 39.94,-22.13 85.2,-47.21 130.2,-47.21 30.04,0 56.42,10.68 80.66,32.65 98.87,89.54 38.17,201.16 37.54,202.29" /><path
         id="path3425"
         style="fill:#ffffff;fill-opacity:1;fill-rule:nonzero;stroke:none"
         d="m 1577.78,1997.03 c 164.77,-44.75 -11.34,-429.24 -210.7,-488.25 0,0 25.12,538.65 210.7,488.25 z M 963.723,993.461 c -21.02,-39.352 -83.008,-64.731 -113.496,-21 -28.008,40.199 -6.289,103.049 13.652,142.059 29.336,57.39 86.836,107.59 142.071,140.38 5.62,-82.79 -10.137,-186.67 -42.227,-261.439 z M 2398.04,1680.18 c -102.66,202.3 -334.26,264.91 -543.66,260.18 0,0 -19.08,-130.42 -25.11,-175.94 -9.32,-70.14 -19.38,-139.93 -28.58,-210.11 -18.65,-142.2 -41.44,-286.77 -83.75,-424.13 -34.86,-113.17 -171.6,-162.418 -259.39,-68.37 -38.15,40.85 -52.15,95.16 -66.37,149.03 0,0 -26.33,121.3 -16.99,178.68 169.34,57.56 338.61,187.17 386.93,366.26 33.38,123.64 35.06,307.52 -75.39,389.97 -158.18,118.11 -279.49,-24.11 -339.26,-152.31 -46.85,-100.49 -77.01,-207.92 -100.31,-316.04 -11.99,-55.79 -15.21,-111.89 -21.03,-168.62 -0.26,-2.61 -2,-45.79 -2,-45.79 -19.96,-4.1 -65.15,-16.59 -65.15,-16.59 -14.67,139.24 -51.37,362.35 -205.277,414.83 -154.551,52.71 -319.937,-51.41 -402.73,-178.35 -18.496,-28.36 -52.5,-64.58 -11.758,-81.11 26.148,-10.62 100.098,-56.3 126.773,-47.81 18.34,5.84 46.875,87.45 59.668,106.18 25.117,36.77 55,72.07 92.461,96.77 82.856,54.65 135.805,4.63 160.844,-77.66 12.867,-42.25 18.863,-86.29 22.109,-130.25 1.4,-19.05 5.33,-147.89 5.33,-147.89 0,0 -112.966,-64.63 -149.353,-90.54 -53.891,-38.38 -105.039,-82.68 -143.535,-136.92 -72.153,-101.68 -52.817,-205.978 53.472,-272.798 94.082,-59.192 248.266,-81.43 329.206,12.968 40.48,47.211 49.29,114.8 58.59,173.99 13.03,83.08 9.14,165.18 13.42,248.57 17.58,5.87 35.13,11.73 52.71,17.58 8.36,-153.14 58.32,-334.79 190.49,-426.948 114.47,-79.793 270.84,-81.262 369.34,25.129 87.03,94.009 107.98,232.839 123.24,354.999 21.05,168.44 44.67,336.51 67.95,504.67 223.28,-0.89 340.15,-210.61 349.53,-410.88 4.98,-106.4 -14.94,-212.95 -92.52,-291.03 -70.96,-71.44 -172.23,-106.29 -271.88,-105.97 -6.95,0.03 -13.88,0.23 -20.8,0.59 -34.41,1.82 -29.96,-14.149 -36.07,-45.719 -2.4,-12.391 -18.2,-106.301 -18.2,-106.301 9.92,-3.629 30.7,-3.828 54.41,-2.379 37.46,2.277 82.25,8.649 103.13,12.059 110.58,18.039 219.9,63.679 300.99,142.56 174.98,170.2 162.31,470.9 58.52,675.44" /></g></g></svg>